# xmcd
#
# Track frame offsets: 
#        150
#        18097
#        34765
#        51150
#        66925
#        81615
#        97162
#        113575
#        128925
#        144287
#        161230
#        178742
#        195317
#        212360
#
# Disc length: 3043 seconds
#
# Revision: 0
# Processed by: cddbd v1.5PL3 Copyright (c) Steve Scherf et al.
# Submitted via: ExactAudioCopy v0.95a3
#
DISCID=c10be10e
DTITLE=Tobias - Feuer und Eis
DYEAR=1900
DGENRE=
TTITLE0=Ich Bin Total Verruckt Nach Dir
TTITLE1=Arrivederci Bella Maria
TTITLE2=Feuer und Eis
TTITLE3=Du Umgibst Mich Wie Nebel
TTITLE4=Wie ein Vulkan
TTITLE5=Sag' Doch Mal Ich Liebe Dich
TTITLE6=Wenn Gitarren Erklingen
TTITLE7=Schones Madchen "Namenlos"
TTITLE8=Zeig' Mir Den Weg Sabrina
TTITLE9=Buona Notte
TTITLE10=Frei
TTITLE11=Katharine
TTITLE12=Komm Zuruck
TTITLE13=Lady Fantasy
EXTD=
EXTT0=
EXTT1=
EXTT2=
EXTT3=
EXTT4=
EXTT5=
EXTT6=
EXTT7=
EXTT8=
EXTT9=
EXTT10=
EXTT11=
EXTT12=
EXTT13=
PLAYORDER=
